<svg width="50" height="50" viewBox="0 0 50 50" fill="none" xmlns="http://www.w3.org/2000/svg">
<path d="M48.2862 21.79C50.5713 19.1739 50.5713 14.9325 48.2862 12.3163L48.2747 12.303L39.2037 1.95719C36.9186 -0.659 33.2141 -0.645787 30.9175 1.95719L11.356 24.3666L5.10098 31.5149C2.81593 34.1179 2.81593 38.3593 5.08944 40.9755L10.6636 47.3574H1.15407C0.519331 47.3574 0 47.952 0 48.6787C0 49.4054 0.519331 50 1.15407 50H35.4761C36.1108 50 36.6301 49.4054 36.6301 48.6787C36.6301 47.952 36.1108 47.3574 35.4761 47.3574H25.9665L28.7248 44.2259L48.2862 21.79ZM22.7005 47.3574H13.9181L6.72822 39.1124C5.34334 37.5268 5.35488 34.9635 6.72822 33.3779L12.1639 27.1678L26.2666 43.2877L22.7005 47.3574ZM13.8027 25.3047L32.5563 3.83345C33.9411 2.24788 36.1916 2.24788 37.5765 3.83345L46.6474 14.1925C48.0323 15.7781 48.0323 18.3414 46.6474 19.9402L27.9054 41.4511L13.8027 25.3047Z" fill="#FEFEFE"/>
</svg>
