<svg width="50" height="50" viewBox="0 0 50 50" fill="none" xmlns="http://www.w3.org/2000/svg">
<path d="M45.9584 15.8298L16.7925 44.9786C17.2092 44.5827 17.2092 43.916 16.7925 43.5201L16.0634 42.7909L43.7501 15.0797L43.021 14.3505C43.2085 14.538 43.4793 14.663 43.7501 14.663C44.021 14.663 44.2918 14.538 44.4793 14.3505L45.2293 13.6212L45.9584 14.3505C46.3542 14.7463 46.3542 15.4131 45.9584 15.8298V15.8298Z" fill="#FEFEFE"/>
<path d="M48.1667 10.6626L45.2293 13.6212L43.7502 12.1419L46.6876 9.18323C47.4792 8.41232 47.9167 7.34971 47.9167 6.24543C47.9167 5.14115 47.4792 4.07854 46.6876 3.30763C45.0835 1.68246 42.4169 1.68246 40.8127 3.30763L37.8545 6.24543L36.3962 4.78695L39.3336 1.82831C41.771 -0.609438 45.7293 -0.609438 48.1667 1.82831C49.3542 3.01593 50 4.57859 50 6.24543C50 7.91227 49.3542 9.47493 48.1667 10.6626V10.6626Z" fill="#FEFEFE"/>
<path d="M43.7501 12.1419L45.2292 13.6212L44.4793 14.3505C44.2918 14.538 44.0209 14.663 43.7501 14.663C43.4793 14.663 43.2085 14.538 43.021 14.3505L35.6462 6.97471C35.2503 6.57884 35.2503 5.9121 35.6462 5.51623L36.3961 4.78699L37.8544 6.24547L43.7501 12.1419Z" fill="#FEFEFE"/>
<path d="M32.6879 6.9747L31.9588 6.24546L34.1671 4.0369C34.5629 3.64102 35.2504 3.64102 35.6462 4.0369L36.3962 4.78697L35.6462 5.51621C35.2504 5.91209 35.2504 6.57882 35.6462 6.9747L34.9171 6.24546L32.7088 8.47485L32.6879 8.45402C33.1046 8.05814 33.1046 7.39141 32.6879 6.9747V6.9747Z" fill="#FEFEFE"/>
<path d="M31.9588 6.24548L32.6879 6.97472C33.1046 7.39143 33.1046 8.05817 32.6879 8.45404C32.2921 8.87075 31.6255 8.87075 31.2296 8.45404L30.5005 7.7248L31.9588 6.24548Z" fill="#FEFEFE"/>
<path d="M16.4592 45.2078C16.5842 45.1662 16.7092 45.0828 16.7925 44.9786C16.7092 45.0828 16.5842 45.1453 16.4592 45.2078Z" fill="#FEFEFE"/>
<path d="M16.0634 45.2911C15.7925 45.2911 15.5217 45.187 15.3342 44.9786L14.1259 43.7702L15.5217 43.3326L16.0634 42.7909L16.7925 43.5201C17.2092 43.916 17.2092 44.5827 16.7925 44.9786C16.7092 45.0828 16.5842 45.1661 16.4592 45.2078C16.3342 45.2703 16.2092 45.2911 16.0634 45.2911Z" fill="#FEFEFE"/>
<path d="M25.334 6.97475L15.0217 17.2883C14.8134 17.4967 14.5634 17.6008 14.2926 17.6008C14.0217 17.6008 13.7509 17.4967 13.5426 17.2883C13.1468 16.8924 13.1468 16.2257 13.5426 15.8298L23.8548 5.51627C25.8339 3.5369 29.2713 3.5369 31.2296 5.51627L31.9588 6.24551L30.5005 7.72482L29.7505 6.97475C28.5839 5.80796 26.5214 5.80796 25.334 6.97475V6.97475Z" fill="#FEFEFE"/>
<path d="M7.23026 33.9358L16.0634 42.7909L15.5217 43.3326L14.1259 43.7701L6.23029 35.8735L6.66777 34.4983L7.23026 33.9358Z" fill="#FEFEFE"/>
<path d="M6.66781 34.4984L6.23032 35.8735L5.02202 34.6651C4.70953 34.3734 4.6262 33.915 4.79286 33.5399C4.83452 33.4149 4.91786 33.3108 5.02202 33.2066C5.41784 32.7899 6.08449 32.7899 6.50115 33.2066L7.23029 33.9358L6.66781 34.4984Z" fill="#FEFEFE"/>
<path d="M32.7087 8.47493L7.23025 33.9359L6.5011 33.2066C6.08444 32.7899 5.4178 32.7899 5.02197 33.2066L30.5005 7.72485L31.2296 8.45409C31.6254 8.8708 32.2921 8.8708 32.6879 8.45409L32.7087 8.47493Z" fill="#FEFEFE"/>
<path d="M5.02201 33.2065C4.91784 33.3107 4.83451 33.4149 4.79285 33.5399C4.85535 33.4149 4.91784 33.2899 5.02201 33.2065V33.2065Z" fill="#FEFEFE"/>
<path d="M16.3759 45.2496L1.35543 49.9584C1.25127 49.9792 1.1471 50.0001 1.04294 50.0001C0.772113 50.0001 0.501286 49.8959 0.313791 49.6875C0.0221324 49.4167 -0.0611988 49.0208 0.0429651 48.6458L4.75117 33.6234C4.77201 33.6025 4.77201 33.5609 4.79284 33.54C4.62618 33.9151 4.70951 34.3735 5.022 34.6652L6.2303 35.8736L2.62623 47.3748L14.1259 43.7703L15.3342 44.9787C15.5217 45.1871 15.7926 45.2912 16.0634 45.2912C16.2092 45.2912 16.3342 45.2704 16.4592 45.2079C16.4384 45.2287 16.3967 45.2287 16.3759 45.2496V45.2496Z" fill="#FEFEFE"/>
</svg>
